# xmcd CD database file
#
# Track frame offsets:
#	150
#	23480
#	40135
#	55452
#	76082
#	94427
#	119252
#	140012
#	165592
#	189827
#	217818
#	237223
#	259380
#	293034
#	359175
#
# Disc length: 4795 seconds
#
# Revision: 0
# Processed by: cddbd v1.5.1PL0 Copyright (c) Steve Scherf et al.
# Submitted via: CDex 1.51
#
DISCID=d812b90f
DTITLE=椎名純平 - Rhodes to Freedom
DYEAR=2004
DGENRE=Pop
TTITLE0=スポットライト
TTITLE1=勝手にしやがれ
TTITLE2=玉葱のハッピーソング
TTITLE3=天国への道
TTITLE4=「月夜の軽犯罪」
TTITLE5=Time of GOLD
TTITLE6=MUSIC MAKER
TTITLE7=世界
TTITLE8=無常
TTITLE9=白昼夢
TTITLE10=浅い夢
TTITLE11=the light〜A Journey to the promised land
TTITLE12=ショウタイム
TTITLE13=Datatrack14
TTITLE14=Datatrack15
EXTD=YEAR: 2004
EXTT0=
EXTT1=
EXTT2=
EXTT3=
EXTT4=
EXTT5=
EXTT6=
EXTT7=
EXTT8=
EXTT9=
EXTT10=
EXTT11=
EXTT12=
EXTT13=
EXTT14=
PLAYORDER=
